<svg width="30" height="30" viewBox="0 0 30 30" fill="none" xmlns="http://www.w3.org/2000/svg">
<circle cx="15" cy="15" r="15" fill="#1ED760"/>
<path d="M4.29545 21.3636C4.26705 19.7917 4.52273 18.5275 5.0625 17.571C5.60227 16.6146 6.30303 15.9186 7.16477 15.483C8.03599 15.0473 8.95455 14.8295 9.92045 14.8295C10.8864 14.8295 11.767 15.0426 12.5625 15.4688C13.3674 15.8854 14.286 16.5436 15.3182 17.4432C16.0189 18.0492 16.5777 18.4754 16.9943 18.7216C17.4205 18.9678 17.8845 19.0909 18.3864 19.0909C19.2008 19.0909 19.8447 18.7973 20.3182 18.2102C20.7917 17.6136 21.0189 16.7519 21 15.625H24.0682C24.0966 17.197 23.8409 18.4612 23.3011 19.4176C22.7708 20.3741 22.0701 21.0701 21.1989 21.5057C20.3277 21.9413 19.4091 22.1591 18.4432 22.1591C17.4773 22.1591 16.5966 21.9508 15.8011 21.5341C15.0057 21.108 14.0871 20.4451 13.0455 19.5455C12.3542 18.9394 11.7955 18.5133 11.3693 18.267C10.9432 18.0208 10.4792 17.8977 9.97727 17.8977C9.21023 17.8977 8.57576 18.1676 8.07386 18.7074C7.58144 19.2377 7.3447 20.1231 7.36364 21.3636H4.29545Z" fill="black"/>
<path d="M4.29545 12.3636C4.26705 10.7917 4.52273 9.52746 5.0625 8.57102C5.60227 7.61458 6.30303 6.91856 7.16477 6.48295C8.03599 6.04735 8.95455 5.82955 9.92045 5.82955C10.8864 5.82955 11.767 6.04261 12.5625 6.46875C13.3674 6.88542 14.286 7.54356 15.3182 8.44318C16.0189 9.04924 16.5777 9.47538 16.9943 9.72159C17.4205 9.9678 17.8845 10.0909 18.3864 10.0909C19.2008 10.0909 19.8447 9.79735 20.3182 9.21023C20.7917 8.61364 21.0189 7.75189 21 6.625H24.0682C24.0966 8.19697 23.8409 9.46117 23.3011 10.4176C22.7708 11.3741 22.0701 12.0701 21.1989 12.5057C20.3277 12.9413 19.4091 13.1591 18.4432 13.1591C17.4773 13.1591 16.5966 12.9508 15.8011 12.5341C15.0057 12.108 14.0871 11.4451 13.0455 10.5455C12.3542 9.93939 11.7955 9.51326 11.3693 9.26705C10.9432 9.02083 10.4792 8.89773 9.97727 8.89773C9.21023 8.89773 8.57576 9.16761 8.07386 9.70739C7.58144 10.2377 7.3447 11.1231 7.36364 12.3636H4.29545Z" fill="black"/>
</svg>
